<svg width="32" height="32" viewBox="0 0 265 265" fill="none" xmlns="http://www.w3.org/2000/svg">
  <!-- Square crop of logo: magnifying glass + start of "HireMe" -->
  <path d="M115.53 0C179.335 0.000239663 231.06 51.8355 231.06 115.777C231.06 141.131 222.925 164.578 209.133 183.648L269 243.644L247.688 265L188.42 205.604C168.537 221.827 143.168 231.555 115.53 231.555C51.7249 231.555 2.88089e-05 179.719 0 115.777C0 51.8353 51.7249 0 115.53 0Z" fill="#0B1F4B"/>
  <path d="M214 116C214 171.228 169.9 216 115.5 216C61.1 216 17 171.228 17 116C17 60.7715 61.1 16 115.5 16C169.9 16 214 60.7715 214 116Z" fill="#4F86F7"/>
  <path d="M115.5 145C147.809 145 174 164.252 174 188C174 211.748 147.809 231 115.5 231C83.1913 231 57 211.748 57 188C57 164.252 83.1913 145 115.5 145Z" fill="#0B1F4B"/>
  <path d="M115 54C136.539 54 154 71.6848 154 93.5C154 115.315 136.539 133 115 133C93.4609 133 76 115.315 76 93.5C76 71.6848 93.4609 54 115 54Z" fill="#0B1F4B"/>
  <path d="M280.378 188V57.0909H308.055V111.104H364.241V57.0909H391.855V188H364.241V133.923H308.055V188H280.378Z" fill="#0B1F4B"/>
</svg>
