<svg xmlns="http://www.w3.org/2000/svg" version="1.1" xmlns:xlink="http://www.w3.org/1999/xlink" width="512" height="512"><svg xmlns="http://www.w3.org/2000/svg" version="1.1" xmlns:xlink="http://www.w3.org/1999/xlink" width="512" height="512"><svg width="512" height="512" viewBox="0 0 512 512" fill="none" xmlns="http://www.w3.org/2000/svg">
<path d="M255.524 0.308449C396.645 0.308449 511.048 114.708 511.048 255.827C511.048 396.945 396.645 511.346 255.524 511.346C114.402 511.346 0 396.945 0 255.827C0 114.708 114.402 0.308449 255.524 0.308449Z" fill="#0B1F4B"></path>
<path d="M473.497 256.838C473.497 378.955 375.983 477.952 255.695 477.952C135.407 477.952 37.8936 378.955 37.8936 256.838C37.8936 134.72 135.407 35.7243 255.695 35.7243C375.983 35.7243 473.497 134.72 473.497 256.838Z" fill="#4F86F7"></path>
<path d="M256.614 312.117C328.055 312.117 385.968 354.685 385.968 407.195C385.968 459.706 328.055 502.274 256.614 502.274C185.174 502.274 127.26 459.706 127.26 407.195C127.26 354.685 185.174 312.117 256.614 312.117Z" fill="#0B1F4B"></path>
<path d="M255.508 110.903C303.135 110.903 341.744 150.007 341.744 198.243C341.744 246.479 303.135 285.583 255.508 285.583C207.881 285.583 169.272 246.479 169.272 198.243C169.272 150.007 207.881 110.903 255.508 110.903Z" fill="#0B1F4B"></path>
</svg></svg><style>@media (prefers-color-scheme: light) { :root { filter: none; } }
@media (prefers-color-scheme: dark) { :root { filter: none; } }
</style></svg>